Motion_pl15
version=1
nRows=13
nColumns=43
inDegrees=yes
endheader
time	pelvis_tilt	pelvis_list	pelvis_rotation	pelvis_tx	pelvis_ty	pelvis_tz	hip_flexion_r	hip_adduction_r	hip_rotation_r	knee_angle_r	ankle_angle_r	subtalar_angle_r	mtp_angle_r	hip_flexion_l	hip_adduction_l	hip_rotation_l	knee_angle_l	ankle_angle_l	subtalar_angle_l	mtp_angle_l	lumbar_extension	lumbar_bending	lumbar_rotation	neck_flexion	neck_lateral_bending	neck_rotation	arm_flex_r	arm_add_r	arm_rot_r	elbow_flex_r	pro_sup_r	wrist_flex_r	wrist_dev_r	hand_finger_flex_r	arm_flex_l	arm_add_l	arm_rot_l	elbow_flex_l	pro_sup_l	wrist_flex_l	wrist_dev_l	hand_finger_flex_l
      1.84000000	      4.31381415	     -8.32359981	     84.55429888	     -0.04636470	      0.80940207	      0.39155420	     47.58835469	     -1.94532458	     -4.04342118	    -73.74568253	     15.47323312	      9.53720117	     36.03170843	     46.65438309	    -13.39790967	     -8.82949971	    -77.08633519	     17.47289682	     16.31147863	     45.31332264	    -39.14929769	      2.71656299	     -1.79823240	     -2.81456663	     -5.34048688	      5.69362225	     -5.02835080	    -31.39921903	      2.51339751	     55.43613672	    124.76819955	      6.78621535	      5.56121407	     20.82070772	     -8.08526525	    -25.85252209	    -11.29818906	     60.96257393	    117.78143886	     -7.84774646	     -5.10189095	     27.74113651
      1.84250000	      4.32817561	     -8.38961673	     84.60733576	     -0.04637263	      0.81128364	      0.39087490	     47.33637261	     -1.91103371	     -4.03254412	    -73.27874923	     15.41981946	      9.56291981	     36.01402268	     46.41320291	    -13.35167112	     -8.86222206	    -76.58818373	     17.44442145	     16.32910170	     45.30439674	    -38.86814269	      2.75070852	     -1.81338200	     -2.80377103	     -5.31751553	      5.69107553	     -5.56300364	    -31.32458268	      2.49436907	     55.27355025	    124.79128630	      6.87004659	      5.58187638	     20.81246514	     -8.55950952	    -25.73398524	    -11.26707828	     60.85630542	    117.77101097	     -7.80693008	     -5.09785606	     27.74233955
      1.84500000	      4.33682315	     -8.41169591	     84.64043495	     -0.04625030	      0.81282351	      0.38992921	     47.11079615	     -1.88200625	     -4.00892658	    -73.00719799	     15.34637578	      9.57821414	     36.00115808	     46.20757445	    -13.31190328	     -8.84314464	    -76.32842505	     17.40848735	     16.33369930	     45.30090381	    -38.56504913	      2.75626692	     -1.83311998	     -2.74713944	     -5.31004644	      5.69412716	     -6.12154899	    -31.26638279	      2.54783203	     55.05847488	    124.80157057	      6.93053881	      5.61597110	     20.81972127	     -9.06344247	    -25.63642325	    -11.23018639	     60.68279602	    117.76952240	     -7.77888567	     -5.07595489	     27.74946412
      1.84750000	      4.39521178	     -7.62121387	     84.76956930	     -0.04635668	      0.81673076	      0.38849955	     45.72097391	     -1.98259368	     -4.16307784	    -72.27955008	     15.40887693	      9.77306528	     35.83213213	     44.81338751	    -13.22591644	     -8.96703471	    -75.51492397	     17.42324551	     16.54337919	     45.10480791	    -39.21742695	      2.77775867	     -1.73650488	     -3.22148226	     -5.25347339	      5.51429277	     -6.96023962	    -30.54821178	      0.71717696	     55.05656734	    125.48848873	      7.96851574	      5.43425207	     20.07675541	     -9.24520655	    -25.32976658	    -11.44884568	     60.50432040	    117.47245412	     -7.32938644	     -5.30615946	     27.38772217
      1.85000000	      4.40466712	     -7.72165043	     84.82397790	     -0.04630897	      0.81846875	      0.38779438	     45.51685033	     -1.93542752	     -4.14105616	    -71.81279162	     15.30499745	      9.78170666	     35.80847081	     44.63345139	    -13.18858038	     -9.00290047	    -75.05404290	     17.36863035	     16.54352897	     45.09452141	    -38.87132848	      2.81472559	     -1.77367540	     -3.32173813	     -5.24175636	      5.52700685	     -7.48043290	    -30.46081378	      0.72347279	     54.88651863	    125.50028840	      8.01732520	      5.45086776	     20.04612394	     -9.73118945	    -25.19342091	    -11.45205106	     60.38630943	    117.45134731	     -7.33166050	     -5.28689078	     27.37125466
      1.85250000	      4.42175655	     -7.68117909	     84.88059055	     -0.04618394	      0.82032180	      0.38669444	     45.15723608	     -1.92604971	     -4.18635077	    -71.40997315	     15.12307859	      9.75108503	     35.75686467	     44.29168054	    -13.15391506	     -9.01203329	    -74.64901372	     17.22047195	     16.54943705	     45.05879453	    -38.55107722	      2.82836799	     -1.84021278	     -4.01057870	     -5.22110438	      5.57145776	     -8.03378678	    -30.14364087	      0.34337758	     54.57359511	    125.46715574	      8.04710709	      5.44578228	     19.85924915	    -10.25156260	    -24.87522616	    -11.73515484	     60.17400942	    117.29470827	     -7.43936092	     -5.27674560	     27.25457751
      1.85500000	      4.43016601	     -7.76423354	     84.93104451	     -0.04611545	      0.82208363	      0.38597834	     44.93825580	     -1.88893807	     -4.19029845	    -70.95369978	     15.05176596	      9.74814894	     35.73722928	     44.08036888	    -13.10992362	     -9.03580619	    -74.16137388	     17.16798401	     16.55648356	     45.04887426	    -38.23421996	      2.85358002	     -1.86171253	     -4.06360067	     -5.20034285	      5.57358387	     -8.54718313	    -30.04902568	      0.33572842	     54.40425600	    125.46433960	      8.11448477	      5.46124609	     19.83243705	    -10.71822764	    -24.75252664	    -11.72680819	     60.08050225	    117.26564579	     -7.42365600	     -5.27876187	     27.24432951
      1.85750000	      4.44363213	     -7.62978661	     85.01329986	     -0.04600908	      0.82412549	      0.38479203	     44.45928050	     -1.90149404	     -4.25275541	    -70.53566063	     14.91785291	      9.68242579	     35.68791974	     43.62104975	    -13.06744148	     -9.06820177	    -73.72905395	     17.01519697	     16.60379934	     45.00943095	    -38.02795667	      2.86893003	     -1.92797058	     -4.70178497	     -5.15330190	      5.59336436	     -9.10501155	    -29.69162455	     -0.15422820	     54.10163900	    125.37036013	      8.21963884	      5.44506313	     19.63025581	    -11.19381542	    -24.44742832	    -12.00572099	     59.87554877	    117.07736916	     -7.48058810	     -5.32408160	     27.13212177
      1.86000000	      4.45050612	     -7.70177359	     85.05356498	     -0.04597591	      0.82589629	      0.38404945	     44.22764418	     -1.87012054	     -4.26148777	    -70.07369334	     14.84582659	      9.67885125	     35.66811580	     43.39236722	    -13.02740666	     -9.10009848	    -73.24369117	     16.96643936	     16.62012966	     44.99951201	    -37.72759040	      2.89458738	     -1.95045077	     -4.73217882	     -5.13581051	      5.59324258	     -9.60396778	    -29.59618322	     -0.17282409	     53.95531241	    125.35842256	      8.29957095	      5.45855078	     19.60406688	    -11.64974341	    -24.32529153	    -11.98619159	     59.78353262	    117.05175186	     -7.45212861	     -5.33251415	     27.12551437
      1.86250000	      4.45862078	     -7.52191504	     85.10787562	     -0.04590060	      0.82802792	      0.38280749	     43.69515938	     -1.89075577	     -4.33188596	    -69.63902458	     14.69406048	      9.61227880	     35.61682789	     42.86087070	    -12.99827164	     -9.16459545	    -72.80180809	     16.82272426	     16.71473756	     44.96206404	    -37.57997490	      2.90116489	     -2.01334000	     -5.34337235	     -5.12170654	      5.61917717	    -10.15690553	    -29.24640926	     -0.70311440	     53.70889416	    125.21276818	      8.44415744	      5.44446617	     19.41928567	    -12.11035632	    -24.02631588	    -12.25514471	     59.58128032	    116.88401501	     -7.46508690	     -5.40331508	     27.03055105
      1.86500000	      4.46832961	     -7.58905275	     85.16908711	     -0.04588686	      0.82980809	      0.38206284	     43.46270203	     -1.85623822	     -4.32657534	    -69.19037156	     14.62847448	      9.60774678	     35.59742864	     42.61978824	    -12.96388554	     -9.21439312	    -72.29626508	     16.77966444	     16.73971914	     44.95198048	    -37.29314384	      2.93855788	     -2.02564152	     -5.35086331	     -5.10725301	      5.61860410	    -10.64887406	    -29.14890436	     -0.72506800	     53.56080078	    125.19610644	      8.53654299	      5.46406497	     19.39467767	    -12.53497333	    -23.90666027	    -12.23593711	     59.50266621	    116.86436061	     -7.42437856	     -5.42096687	     27.02612613
      1.86750000	      4.47219509	     -7.36112436	     85.21728581	     -0.04583704	      0.83202795	      0.38080736	     42.88067550	     -1.88116320	     -4.39153555	    -68.74544366	     14.47066801	      9.53547671	     35.54054131	     42.01676530	    -12.94031475	     -9.31184474	    -71.82842613	     16.65374187	     16.87738598	     44.91134382	    -37.20388966	      2.93845268	     -2.07543998	     -5.93206230	     -5.10586192	      5.64047490	    -11.19847545	    -28.79270098	     -1.30338562	     53.33062636	    125.01576399	      8.73786793	      5.46424191	     19.20906797	    -12.95759139	    -23.62062915	    -12.50929964	     59.29990471	    116.72620746	     -7.35996232	     -5.53569380	     26.93720095
      1.87000000	      4.48136800	     -7.42414916	     85.27088487	     -0.04583917	      0.83379830	      0.38006742	     42.64731580	     -1.84874152	     -4.38845428	    -68.30092324	     14.40388140	      9.53234514	     35.52032838	     41.76833913	    -12.90322094	     -9.36017222	    -71.32460259	     16.61632599	     16.90553903	     44.90070248	    -36.92295641	      2.97194748	     -2.08239623	     -5.92592351	     -5.08994430	      5.63655696	    -11.67400014	    -28.68989671	     -1.32344138	     53.20066615	    124.99726711	      8.83805855	      5.48485273	     19.18507567	    -13.36778161	    -23.50293145	    -12.48461509	     59.23145798	    116.71641125	     -7.29930334	     -5.56399121	     26.93382199
